<?xml version="1.0" encoding="utf-8"?>
<!-- Svg Vector Icons : http://www.onlinewebfonts.com/icon -->
<!DOCTYPE svg PUBLIC "-//W3C//DTD SVG 1.1//EN" "http://www.w3.org/Graphics/SVG/1.1/DTD/svg11.dtd">
<svg version="1.1" xmlns="http://www.w3.org/2000/svg" xmlns:xlink="http://www.w3.org/1999/xlink" x="0px" y="0px" viewBox="0 0 1000 1000" enable-background="new 0 0 1000 1000" xml:space="preserve">
<metadata> Svg Vector Icons : http://www.onlinewebfonts.com/icon </metadata>
<g><path d="M46.8,794.2c-12.3,6.1-24.5,18.4-36.8,30.6l73.6,85.8c239-159.4,380-324.9,422.9-502.6c12.3-49,24.5-141-18.4-208.4c0,0,0,0,0-6.1c-6.1-6.1-12.3-12.3-18.4-18.4c0-6.1-6.1-12.3-18.4-24.5l0,0c-6.1-6.1-18.4-12.3-24.5-18.4c-6.1,0-6.1-6.1-12.3-6.1c-6.1-6.1-12.3-12.3-18.4-12.3c-24.5-12.3-55.2-18.4-85.8-18.4c-110.3,0-202.3,91.9-202.3,202.3S200,500,310.3,500C279.7,591.9,193.9,690,46.8,794.2z"/><path d="M518.7,794.2c-12.3,6.1-24.5,18.4-36.8,30.6l73.6,85.8c239-153.2,380-318.7,422.9-496.5c12.3-55.2,24.5-147.1-18.4-214.5c0,0,0,0,0-6.1c-6.1-6.1-6.1-12.3-12.3-18.4c-6.1-6.1-12.3-18.4-18.4-24.5l0,0c-6.1-6.1-18.4-18.4-24.5-24.5c-6.1,0-6.1-6.1-12.3-6.1c-6.1-6.1-12.3-6.1-18.4-12.3c-24.5-12.3-55.2-18.4-85.8-18.4c-110.3,0-202.3,91.9-202.3,202.3s91.9,202.3,202.3,202.3C751.7,591.9,665.8,690,518.7,794.2z"/></g>
</svg>